HIERARCHY
ROOT Hips
{
	OFFSET	0.00	0.00	0.00
	CHANNELS 6 Xposition Yposition Zposition Zrotation Xrotation Yrotation
	JOINT Spine
	{
		OFFSET	 0.00	0.01	 0.00
		CHANNELS 3 Zrotation Xrotation Yrotation
		JOINT Spine1
		{
			OFFSET	 0.00	 2.45913012437421	 0.00
			CHANNELS 3 Zrotation Xrotation Yrotation
            JOINT Neck
            {
                OFFSET	 0.00	 2.48462964506057	 0.00
                CHANNELS 3 Zrotation Xrotation Yrotation
                JOINT Head
                {
                    OFFSET	 0.00	 0.927524780924562	 0.00
                    CHANNELS 3 Zrotation Xrotation Yrotation
                    End Site 
                    {
                        OFFSET	 0.00	 1.14999962169752	 0.00
                    }
                }
            }
			JOINT LeftShoulder
			{
				OFFSET	 0.00	 2.48462964506057	 0.00
				CHANNELS 3 Zrotation Xrotation Yrotation
				JOINT LeftUpArm
				{
					OFFSET	 0.00	 1.24881979654096	 0.00
					CHANNELS 3 Zrotation Xrotation Yrotation
					JOINT LeftForeArm
					{
						OFFSET	 0.00	2.59758046908119	 0.00
						CHANNELS 3 Zrotation Xrotation Yrotation
						JOINT LeftHand
						{
							OFFSET	 0.00	2.45542024364365	 0.00
							CHANNELS 3 Zrotation Xrotation Yrotation
							JOINT LeftHandThumb 
							{
								OFFSET	 0.00	0.00	 0.00
								CHANNELS 3 Zrotation Xrotation Yrotation
								End Site
								{
									OFFSET	 0.00	0.00	1.00000003353624
								}
							}
							JOINT L_Wrist_End 
							{
								OFFSET	 0.00	0.99999967115358	 0.00
								CHANNELS 3 Zrotation Xrotation Yrotation
								End Site 
								{
									OFFSET	 0.00	 0.00	 0.00
								}
							}
						}
					}
				}
			}
			JOINT RightShoulder
			{
				OFFSET	 0.00	 2.48462964506057	 0.00
				CHANNELS 3 Zrotation Xrotation Yrotation
				JOINT RightUpArm
				{
					OFFSET	 0.00	 1.24881979654096	 0.00
					CHANNELS 3 Zrotation Xrotation Yrotation
					JOINT RightForeArm
					{
						OFFSET	 0.00	2.59758046908119	 0.00
						CHANNELS 3 Zrotation Xrotation Yrotation
						JOINT RightHand
						{
							OFFSET	 0.00	2.45542024364365	 0.00
							CHANNELS 3 Zrotation Xrotation Yrotation
							JOINT RightHandThumb 
							{
								OFFSET	 0.00	0.00	 0.00
								CHANNELS 3 Zrotation Xrotation Yrotation
								End Site
								{
									OFFSET	 0.00	0.00	1.00000003353624
								}
							}
							JOINT R_Wrist_End 
							{
								OFFSET	 0.00	0.99999967115358	 0.00
								CHANNELS 3 Zrotation Xrotation Yrotation
								End Site 
								{
									OFFSET	 0.00	 0.00	 0.00
								}
							}
						}
					}
				}
			}
		}
	}
	JOINT LeftUpLeg
	{
		OFFSET	 1.2719394002717	 0.00	 0.00
		CHANNELS 3 Zrotation Xrotation Yrotation
		JOINT LeftLowLeg
		{
			OFFSET	 0.00	-4.3429100912261	 0.00
			CHANNELS 3 Zrotation Xrotation Yrotation
			JOINT LeftFoot
			{
				OFFSET	 0.00	-4.48767017425826	 0.00
				CHANNELS 3 Zrotation Xrotation Yrotation
				JOINT LeftToeBase
                {
                    OFFSET	 0.00	0.00	 1.51507020887566
                    CHANNELS 3 Zrotation Xrotation Yrotation
                    End Site 
                    {
                        OFFSET	 0.00	0.00	 0.75000010571191
                    }
                }
			}
		}
	}
	JOINT RightUpLeg
	{
		OFFSET	 -1.2719393604653	 0.00	 0.00
		CHANNELS 3 Zrotation Xrotation Yrotation
		JOINT RightLowLeg
		{
			OFFSET	 0.00	-4.3429100912261	 0.00
			CHANNELS 3 Zrotation Xrotation Yrotation
			JOINT RightFoot
			{
				OFFSET	 0.00	-4.48767017425826	 0.00
				CHANNELS 3 Zrotation Xrotation Yrotation
				JOINT RightToeBase
                {
                    OFFSET	 0.00	0.00	 1.51507020887566
                    CHANNELS 3 Zrotation Xrotation Yrotation
                    End Site 
                    {
                        OFFSET	 0.00	0.00	 0.749999965609858
                    }
                }   
			}
		}
	}
}
MOTION 
Frames:	10 
Frame Time: 0.02 
 6.281329956054687 18.319599609375 10.73489990234375 168.395 81.4273 112.83 7.67535 -19.5081 2.29951 -9.88491 36.0782 0.849922 2.19504 40.041 7.0424 16.0724 -56.2492 17.4111 -116.2117 4.1363 -9.72544 -34.4945 3.64878 35.9328 0.0 25.3197 0.0 9.24454 -7.33544 2.25838 0.0 0.0 0.0 0.0 0.0 0.0 122.5795 -0.208658 5.90332 41.2232 1.68438 -23.4985 0.0 31.4264 0.0 -7.20619 0.367604 7.973 0.0 0.0 0.0 0.0 0.0 0.0 0.722028 6.88999 27.3867 0.0 -2.49509 0.0 -4.5291 7.56621 10.4945 0.0 -9.08555 0.0 7.2124 -7.71575 19.9379 0.0 10.119 0.0 16.2269 19.53548 -15.8516 0.0 -13.434731 0.0 
  6.299630126953125 18.329300537109376 10.735999755859375 167.231 81.3755 113.765 7.60088 -19.3096 2.34571 -10.1108 36.2255 0.891724 2.37238 39.655 6.95156 16.3194 -56.3241 17.9277 -116.059296 4.06091 -9.961 -34.5719 3.48289 35.9092 0.0 24.8339 0.0 9.49454 -7.14526 2.45474 0.0 0.0 0.0 0.0 0.0 0.0 122.6587 -0.239786 5.9438 41.3189 1.62165 -23.7463 0.0 31.5737 0.0 -7.19297 0.373574 7.88496 0.0 0.0 0.0 0.0 0.0 0.0 0.717353 6.62967 27.4884 0.0 -2.48452 0.0 -4.52703 7.57725 10.5765 0.0 -9.10242 0.0 7.28856 -7.87584 19.1933 0.0 9.79268 0.0 16.1573 19.79899 -16.024 0.0 -13.70433 0.0 
  6.315679931640625 18.3406005859375 10.73550048828125 165.936 81.3349 114.948 7.46639 -19.1402 2.28671 -10.2972 36.3943 0.868857 2.42757 39.2445 7.02194 16.6121 -56.4276 18.4069 -115.8665 3.98954 -10.0539 -34.6241 3.41773 35.7793 0.0 24.4508 0.0 9.17219 -7.16666 2.08443 0.0 0.0 0.0 0.0 0.0 0.0 122.670395 -0.249385 5.7839 41.4835 1.66584 -23.8107 0.0 31.6623 0.0 -7.1011 0.435952 7.81346 0.0 0.0 0.0 0.0 0.0 0.0 0.710224 6.35593 27.4469 0.0 -2.49079 0.0 -4.49438 7.57278 10.6899 0.0 -9.09515 0.0 7.36723 -8.05812 18.2889 0.0 9.53221 0.0 16.0504 19.91917 -16.2554 0.0 -14.09904 0.0 
  6.33322021484375 18.35239990234375 10.7356005859375 164.741 81.2606 116.01 7.45822 -18.8947 2.39509 -10.5718 36.5227 0.900598 2.61881 38.9971 6.92033 17.0339 -56.7316 19.0647 -115.7417 3.99115 -9.92221 -34.5282 3.54284 35.6573 0.0 24.1835 0.0 8.95018 -7.43303 1.73384 0.0 0.0 0.0 0.0 0.0 0.0 122.7716 -0.263996 5.91988 41.6431 1.43272 -24.0628 0.0 31.7393 0.0 -7.38592 0.353874 7.92179 0.0 0.0 0.0 0.0 0.0 0.0 0.767271 6.01934 27.3464 0.0 -2.34403 0.0 -4.43581 7.46902 10.8376 0.0 -9.16224 0.0 7.48397 -8.1898 17.3469 0.0 9.15155 0.0 16.0122 19.93693 -16.7106 0.0 -13.92351 0.0 
  6.35052001953125 18.364300537109376 10.7347998046875 163.46 81.2273 117.171 7.50516 -18.6151 2.57277 -11.0205 36.6948 0.900763 2.91207 38.6086 6.76094 17.5471 -56.9259 19.8765 -115.5109 3.89116 -9.73794 -34.4649 3.86753 35.6838 0.0 23.9545 0.0 8.83141 -7.65265 1.79337 0.0 0.0 0.0 0.0 0.0 0.0 122.869 -0.254695 6.06045 41.8684 1.21266 -23.9829 0.0 31.7093 0.0 -6.74724 0.575987 7.79306 0.0 0.0 0.0 0.0 0.0 0.0 0.782455 5.66813 27.3727 0.0 -2.17278 0.0 -4.35289 7.37662 10.8808 0.0 -9.2152405 0.0 7.57641 -8.37108 16.4174 0.0 8.93669 0.0 15.9452 19.7793 -17.2584 0.0 -13.95552 0.0 
  6.365989990234375 18.379200439453125 10.73449951171875 162.212 81.2364 118.333 7.54482 -18.2782 2.7785 -11.5581 36.8729 0.896553 3.27988 38.229 6.53579 18.1638 -57.1347 20.7821 -115.2763 3.65718 -9.45541 -34.3667 4.47442 35.7203 0.0 23.6726 0.0 8.53968 -7.72173 1.46816 0.0 0.0 0.0 0.0 0.0 0.0 123.07 -0.305448 6.25307 42.0924 1.00418 -24.4934 0.0 31.7318 0.0 -7.33047 0.408042 8.02379 0.0 0.0 0.0 0.0 0.0 0.0 0.782115 5.35941 27.0233 0.0 -2.0407 0.0 -4.35681 7.32676 11.1962 0.0 -9.1811695 0.0 7.67423 -8.55156 15.7527 0.0 8.80839 0.0 15.8236 19.61248 -17.9534 0.0 -14.04843 0.0 
  6.3814599609375 18.39530029296875 10.73489990234375 161.058 81.2564 119.382 7.66071 -17.8974 3.0664 -12.2142 36.9909 0.847056 3.67027 38.108 6.31691 18.8177 -57.4234 21.8495 -114.6646 4.83665 -10.6455 -34.2966 2.37993 35.5418 0.0 23.9581 0.0 8.51912 -7.51112 2.45354 0.0 0.0 0.0 0.0 0.0 0.0 123.3134 -0.146115 6.03631 42.2833 0.834796 -24.3489 0.0 31.7468 0.0 -7.24173 0.335423 8.14969 0.0 0.0 0.0 0.0 0.0 0.0 0.794679 5.05897 26.8714 0.0 -1.86292 0.0 -4.35376 7.28605 11.3842 0.0 -9.28466 0.0 7.78346 -8.77504 15.3086 0.0 8.80901 0.0 15.6777 19.46686 -18.6044 0.0 -14.006616 0.0 
  6.396240234375 18.4127001953125 10.735699462890626 160.107 81.2693 120.199 7.71397 -17.5062 3.25206 -12.7729 37.4431 0.910154 3.82017 37.3656 6.35948 19.5488 -57.6805 22.7531 -114.4301 4.2924 -10.0491 -34.3305 3.85059 35.8448 0.0 23.5557 0.0 8.91436 -7.67774 2.41213 0.0 0.0 0.0 0.0 0.0 0.0 123.390305 -0.155465 5.9461 42.5668 0.946567 -24.4114 0.0 31.7944 0.0 -7.18107 0.311242 8.21804 0.0 0.0 0.0 0.0 0.0 0.0 0.840227 4.8028 26.6633 0.0 -1.69572 0.0 -4.44651 7.21751 11.53 0.0 -9.260611 0.0 7.90703 -9.00498 15.251 0.0 8.86843 0.0 15.6808 19.288929 -19.187 0.0 -13.81334 0.0 
  6.410269775390625 18.431300048828124 10.7375 159.469 81.2941 120.69 7.80205 -17.0379 3.48753 -13.3462 37.8375 0.977011 4.00973 36.8829 6.339 20.2874 -58.0513 23.7398 -114.0939 4.32917 -10.0045 -34.2934 4.30727 35.9316 0.0 23.4676 0.0 8.89799 -7.78062 2.7929 0.0 0.0 0.0 0.0 0.0 0.0 123.4347 -0.0933305 5.99459 42.8567 0.83231 -24.2139 0.0 31.8078 0.0 -6.39689 0.563805 7.91259 0.0 0.0 0.0 0.0 0.0 0.0 0.886787 4.62521 26.1038 0.0 -1.59688 0.0 -4.52442 7.20286 12.1132 0.0 -9.2986 0.0 8.03329 -9.25355 15.6009 0.0 9.05411 0.0 15.5802 19.272251 -19.5636 0.0 -13.83949 0.0 
  6.423699951171875 18.45 10.7393994140625 158.956 81.3176 121.039 7.82593 -16.5167 3.61352 -13.7453 38.2632 1.04818 3.86838 36.3619 6.62243 20.9848 -58.6326 24.5469 -114.0762 4.15643 -9.47824 -34.0275 5.38053 35.8695 0.0 23.4191 0.0 8.82683 -7.77201 2.56874 0.0 0.0 0.0 0.0 0.0 0.0 123.3981 -0.0404778 5.94035 43.067 0.834514 -24.7398 0.0 32.0179 0.0 -7.16902 0.285055 7.9892 0.0 0.0 0.0 0.0 0.0 0.0 0.959598 4.42914 25.9093 0.0 -1.41542 0.0 -4.56337 7.16897 12.3498 0.0 -9.34375 0.0 8.16246 -9.54793 16.3429 0.0 9.35594 0.0 15.499 19.38159 -19.8417 0.0 -14.0737915 0.0 
